<?xml version="1.0" standalone="no"?>
<!DOCTYPE svg PUBLIC "-//W3C//DTD SVG 20010904//EN"
 "http://www.w3.org/TR/2001/REC-SVG-20010904/DTD/svg10.dtd">
<svg version="1.0" xmlns="http://www.w3.org/2000/svg"
 width="243.000000pt" height="259.000000pt" viewBox="0 0 243.000000 259.000000"
 preserveAspectRatio="xMidYMid meet">

<g transform="translate(0.000000,259.000000) scale(0.100000,-0.100000)"
fill="#000000" stroke="none">
<path d="M217 2318 c-7 -61 -3 -245 5 -253 11 -12 92 40 157 101 55 51 141
164 141 185 0 5 -67 9 -149 9 l-149 0 -5 -42z"/>
<path d="M550 2335 c0 -14 -6 -25 -12 -25 -7 0 -28 -23 -47 -50 -44 -66 -146
-161 -218 -203 l-58 -33 -1 -106 c-1 -59 2 -112 7 -119 14 -24 230 71 284 125
12 12 34 28 49 36 68 35 227 240 275 354 l20 46 -149 0 -150 0 0 -25z m-5
-135 c0 -18 -6 -35 -12 -37 -9 -3 -13 8 -13 37 0 29 4 40 13 38 6 -3 12 -20
12 -38z m5 -146 c0 -24 -5 -34 -15 -34 -10 0 -15 10 -15 33 0 19 3 37 6 40 13
13 24 -5 24 -39z"/>
<path d="M870 2340 c0 -12 -5 -26 -10 -33 -6 -7 -34 -52 -63 -102 -37 -63 -81
-119 -149 -189 -54 -55 -98 -108 -98 -118 0 -10 -7 -18 -15 -18 -8 0 -15 4
-15 10 0 5 -23 -4 -51 -22 -62 -38 -197 -98 -222 -98 -27 0 -34 -35 -32 -150
1 -58 3 -108 4 -111 3 -14 116 14 234 58 65 24 67 26 67 59 0 24 5 34 15 34 9
0 15 -10 15 -26 l0 -26 58 32 c250 140 473 418 557 698 l6 22 -150 0 c-145 0
-151 -1 -151 -20z m0 -140 c0 -22 -4 -40 -10 -40 -5 0 -10 18 -10 40 0 22 5
40 10 40 6 0 10 -18 10 -40z m0 -146 c0 -19 -4 -34 -10 -34 -5 0 -10 18 -10
41 0 24 4 38 10 34 6 -3 10 -22 10 -41z m0 -139 c0 -19 -4 -35 -10 -35 -5 0
-10 16 -10 35 0 19 5 35 10 35 6 0 10 -16 10 -35z m-325 -145 c0 -18 -6 -35
-12 -37 -9 -3 -13 8 -13 37 0 29 4 40 13 38 6 -3 12 -20 12 -38z"/>
<path d="M1200 2335 c0 -14 -4 -25 -9 -25 -4 0 -16 -21 -26 -47 -49 -131 -135
-273 -234 -388 -50 -58 -60 -76 -61 -107 0 -21 -4 -38 -10 -38 -5 0 -10 11
-10 25 0 29 -12 32 -31 9 -24 -29 -123 -100 -204 -148 -89 -51 -237 -108 -332
-126 -73 -15 -71 -11 -69 -165 l1 -100 58 2 c124 4 365 83 507 167 l76 44 -4
41 c-3 24 0 41 6 41 6 0 12 -16 14 -35 l3 -35 70 53 c38 28 106 88 150 132
l81 80 -4 48 c-3 37 -1 47 11 47 10 0 17 -11 19 -31 3 -29 7 -25 74 77 103
156 157 272 202 432 l20 72 -149 0 -149 0 0 -25z m0 -135 c0 -29 -4 -40 -15
-40 -11 0 -15 11 -15 40 0 29 4 40 15 40 11 0 15 -11 15 -40z m0 -146 c0 -24
-5 -34 -15 -34 -10 0 -15 10 -15 33 0 19 3 37 6 40 13 13 24 -5 24 -39z m0
-139 c0 -24 -5 -35 -15 -35 -10 0 -15 11 -15 35 0 24 5 35 15 35 10 0 15 -11
15 -35z m-330 -290 c0 -19 -4 -35 -10 -35 -5 0 -10 16 -10 35 0 19 5 35 10 35
6 0 10 -16 10 -35z m-322 -142 c-2 -21 -7 -38 -13 -38 -5 0 -11 17 -13 38 -3
29 0 37 13 37 13 0 16 -8 13 -37z m-3 -143 c0 -18 -6 -35 -12 -37 -9 -3 -13 8
-13 37 0 29 4 40 13 38 6 -3 12 -20 12 -38z"/>
<path d="M1520 2344 c0 -32 -63 -203 -115 -311 -210 -441 -621 -752 -1093
-829 -47 -7 -87 -16 -90 -19 -3 -3 -7 -60 -8 -127 l-2 -121 86 7 c254 18 566
131 792 284 l84 57 -3 48 c-2 37 1 47 13 47 10 0 16 -12 18 -36 l3 -37 99 94
c129 122 196 203 196 236 0 18 4 24 15 19 27 -10 152 199 219 368 43 106 86
258 86 304 l0 32 -150 0 c-129 0 -150 -2 -150 -16z m0 -144 c0 -22 -4 -40 -10
-40 -5 0 -10 18 -10 40 0 22 5 40 10 40 6 0 10 -18 10 -40z m0 -145 c0 -19 -4
-35 -10 -35 -5 0 -10 16 -10 35 0 19 5 35 10 35 6 0 10 -16 10 -35z m0 -140
c0 -19 -4 -35 -10 -35 -5 0 -10 16 -10 35 0 19 5 35 10 35 6 0 10 -16 10 -35z
m0 -145 c0 -22 -4 -40 -10 -40 -5 0 -10 18 -10 40 0 22 5 40 10 40 6 0 10 -18
10 -40z m-320 -145 c0 -24 -5 -35 -15 -35 -10 0 -15 11 -15 35 0 24 5 35 15
35 10 0 15 -11 15 -35z m-2 -142 c-2 -21 -7 -38 -13 -38 -5 0 -11 17 -13 38
-3 29 0 37 13 37 13 0 16 -8 13 -37z m-328 -143 c0 -22 -4 -40 -10 -40 -5 0
-10 18 -10 40 0 22 5 40 10 40 6 0 10 -18 10 -40z m-320 -145 c0 -24 -5 -35
-15 -35 -10 0 -15 11 -15 35 0 24 5 35 15 35 10 0 15 -11 15 -35z m320 0 c0
-19 -4 -35 -10 -35 -5 0 -10 16 -10 35 0 19 5 35 10 35 6 0 10 -16 10 -35z
m-322 -142 c-4 -52 -28 -56 -28 -4 0 30 4 41 16 41 11 0 14 -9 12 -37z"/>
<path d="M1855 2348 c-12 -40 -21 -108 -14 -108 5 0 9 -18 9 -40 0 -39 -12
-52 -26 -29 -4 7 -24 -35 -44 -92 -143 -405 -454 -769 -817 -956 -88 -46 -93
-50 -93 -80 0 -18 -4 -33 -10 -33 -9 0 -15 22 -11 43 2 10 -32 1 -69 -18 -85
-43 -338 -104 -492 -120 l-66 -6 -5 -37 c-2 -20 -4 -77 -3 -127 l1 -90 106 2
c176 3 516 84 527 125 5 20 18 24 24 7 7 -22 280 107 299 142 5 11 15 17 20
13 13 -8 146 81 242 161 59 50 67 61 67 91 0 19 5 34 10 34 6 0 10 -10 10 -22
0 -49 191 166 312 352 144 220 253 501 293 758 l7 42 -136 0 c-101 0 -138 -3
-141 -12z m-5 -294 c0 -24 -5 -34 -15 -34 -10 0 -15 10 -15 33 0 19 3 37 6 40
13 13 24 -5 24 -39z m0 -139 c0 -24 -5 -35 -15 -35 -10 0 -15 11 -15 35 0 24
5 35 15 35 10 0 15 -11 15 -35z m0 -146 c0 -28 -4 -39 -12 -37 -24 8 -22 78 2
78 5 0 10 -18 10 -41z m0 -144 c0 -24 -5 -35 -15 -35 -10 0 -15 11 -15 35 0
24 5 35 15 35 10 0 15 -11 15 -35z m-330 -146 c0 -24 -4 -38 -10 -34 -5 3 -10
22 -10 41 0 19 5 34 10 34 6 0 10 -18 10 -41z m0 -139 c0 -22 -4 -40 -10 -40
-5 0 -10 18 -10 40 0 22 5 40 10 40 6 0 10 -18 10 -40z m-320 -145 c0 -24 -5
-35 -15 -35 -10 0 -15 11 -15 35 0 24 5 35 15 35 10 0 15 -11 15 -35z m-2
-142 c-2 -21 -7 -38 -13 -38 -5 0 -11 17 -13 38 -3 29 0 37 13 37 13 0 16 -8
13 -37z m-648 -149 c0 -24 -5 -34 -15 -34 -10 0 -15 10 -15 33 0 19 3 37 6 40
13 13 24 -5 24 -39z m320 6 c0 -22 -4 -40 -10 -40 -5 0 -10 18 -10 40 0 22 5
40 10 40 6 0 10 -18 10 -40z m-320 -145 c0 -24 -5 -35 -15 -35 -10 0 -15 11
-15 35 0 24 5 35 15 35 10 0 15 -11 15 -35z"/>
<path d="M2140 2253 c-43 -218 -151 -496 -258 -663 -24 -37 -35 -67 -36 -95
-1 -42 -19 -61 -24 -26 -3 16 -16 3 -62 -57 -125 -166 -295 -326 -477 -450
-53 -35 -83 -62 -83 -74 0 -10 -7 -18 -15 -18 -8 0 -15 5 -15 11 0 6 -33 -7
-72 -29 -40 -21 -108 -54 -151 -72 -42 -19 -77 -38 -77 -43 0 -5 -7 -7 -15 -4
-8 4 -45 -4 -82 -17 -38 -13 -103 -31 -146 -41 -42 -10 -77 -22 -77 -27 0 -14
297 -10 304 5 5 10 7 10 12 0 7 -16 304 -19 304 -3 0 6 7 10 15 10 8 0 15 -4
15 -10 0 -16 297 -13 304 3 5 10 7 10 12 0 8 -18 294 -18 313 0 11 10 14 10
18 0 3 -10 44 -13 154 -13 112 0 149 3 150 13 2 19 4 1657 2 1657 -1 0 -7 -26
-13 -57z m-290 -914 c0 -28 -4 -39 -12 -37 -24 8 -22 78 2 78 5 0 10 -18 10
-41z m0 -144 c0 -24 -5 -35 -15 -35 -10 0 -15 11 -15 35 0 24 5 35 15 35 10 0
15 -11 15 -35z m-330 -145 c0 -22 -4 -40 -10 -40 -5 0 -10 18 -10 40 0 22 5
40 10 40 6 0 10 -18 10 -40z m330 -1 c0 -52 -24 -48 -28 4 -2 28 1 37 12 37
12 0 16 -11 16 -41z m-330 -139 c0 -22 -4 -40 -10 -40 -5 0 -10 18 -10 40 0
22 5 40 10 40 6 0 10 -18 10 -40z m330 0 c0 -29 -4 -40 -15 -40 -10 0 -15 10
-15 33 0 19 3 37 7 40 15 16 23 5 23 -33z m-650 -145 c0 -24 -5 -35 -15 -35
-10 0 -15 11 -15 35 0 24 5 35 15 35 10 0 15 -11 15 -35z m320 0 c0 -19 -4
-35 -10 -35 -5 0 -10 16 -10 35 0 19 5 35 10 35 6 0 10 -16 10 -35z m330 0 c0
-24 -5 -35 -15 -35 -10 0 -15 11 -15 35 0 24 5 35 15 35 10 0 15 -11 15 -35z"/>
<path d="M488 643 c6 -2 18 -2 25 0 6 3 1 5 -13 5 -14 0 -19 -2 -12 -5z"/>
<path d="M218 598 c-4 -65 -5 -347 -1 -371 l5 -27 149 0 c126 0 149 2 149 15
0 19 19 19 26 0 9 -22 304 -22 304 0 0 8 5 15 10 15 6 0 10 -7 10 -15 0 -13
23 -15 150 -15 127 0 150 2 150 15 0 8 7 15 15 15 8 0 15 -7 15 -15 0 -13 23
-15 150 -15 127 0 150 2 150 15 0 8 5 15 10 15 6 0 10 -7 10 -15 0 -22 295
-22 304 0 7 19 26 19 26 0 0 -13 23 -15 149 -15 l149 0 5 27 c4 24 3 306 -1
371 -2 22 -4 22 -152 22 -143 0 -150 -1 -150 -20 0 -11 -5 -20 -11 -20 -6 0
-13 9 -16 20 -5 19 -14 20 -150 20 -136 0 -145 -1 -150 -20 -7 -26 -23 -26
-23 0 0 19 -7 20 -149 20 -143 0 -149 -1 -154 -21 -6 -23 -27 -17 -27 7 0 11
-26 14 -150 14 -143 0 -150 -1 -150 -20 0 -11 -4 -20 -9 -20 -5 0 -11 9 -14
20 -5 19 -14 20 -150 20 -136 0 -145 -1 -150 -20 -3 -11 -10 -20 -16 -20 -6 0
-11 9 -11 20 0 19 -7 20 -150 20 -148 0 -150 0 -152 -22z m192 -113 l0 -85
-30 0 c-29 0 -30 1 -30 49 0 46 -1 48 -25 43 -21 -4 -24 -1 -18 14 10 28 55
63 81 64 21 0 22 -3 22 -85z m334 69 c24 -24 19 -53 -15 -85 l-31 -29 31 0
c24 0 31 -4 31 -20 0 -18 -7 -20 -70 -20 -47 0 -70 4 -70 12 0 6 21 31 46 55
30 29 44 50 40 60 -6 14 -8 14 -24 -1 -36 -32 -72 -15 -46 22 19 27 84 30 108
6z m330 -6 c8 -13 8 -23 -1 -37 -10 -15 -9 -22 2 -31 38 -32 -14 -97 -69 -86
-35 7 -56 23 -56 42 0 17 47 19 52 2 5 -14 38 -3 38 13 0 6 -9 13 -20 16 -23
6 -27 31 -5 39 8 4 15 12 15 20 0 8 -7 14 -15 14 -8 0 -15 -4 -15 -10 0 -5
-11 -10 -25 -10 -29 0 -31 7 -8 32 22 24 91 21 107 -4z m326 -28 c0 -27 5 -50
10 -50 6 0 10 -9 10 -20 0 -11 -4 -20 -10 -20 -5 0 -10 -7 -10 -15 0 -9 -9
-15 -25 -15 -16 0 -25 6 -25 15 0 11 -11 15 -40 15 -34 0 -40 3 -40 21 0 31
78 119 107 119 21 0 23 -4 23 -50z m330 30 c0 -16 -7 -20 -35 -20 -19 0 -35
-4 -35 -10 0 -5 13 -10 28 -10 15 0 33 -5 40 -12 13 -13 16 -57 4 -74 -14 -22
-53 -35 -83 -29 -29 6 -54 36 -42 49 10 10 43 7 43 -4 0 -5 9 -10 21 -10 15 0
20 5 17 23 -3 19 -8 22 -40 19 -36 -3 -38 -1 -38 25 0 65 8 73 66 73 47 0 54
-2 54 -20z m320 5 c20 -24 -3 -44 -31 -27 -22 14 -39 8 -39 -12 0 -9 9 -12 25
-8 32 6 65 -22 65 -54 0 -32 -47 -67 -80 -59 -44 11 -60 34 -60 87 0 35 6 54
20 68 24 24 82 27 100 5z m-1500 -81 c0 -24 -5 -34 -15 -34 -10 0 -15 10 -15
33 0 19 3 37 6 40 13 13 24 -5 24 -39z m320 6 c0 -22 -4 -40 -10 -40 -5 0 -10
18 -10 40 0 22 5 40 10 40 6 0 10 -18 10 -40z m330 -6 c0 -24 -5 -34 -15 -34
-10 0 -15 10 -15 33 0 19 3 37 6 40 13 13 24 -5 24 -39z m320 6 c0 -22 -4 -40
-10 -40 -5 0 -10 18 -10 40 0 22 5 40 10 40 6 0 10 -18 10 -40z m330 -6 c0
-24 -5 -34 -15 -34 -10 0 -15 10 -15 33 0 19 3 37 6 40 13 13 24 -5 24 -39z
m-1300 -139 c0 -24 -5 -35 -15 -35 -10 0 -15 11 -15 35 0 24 5 35 15 35 10 0
15 -11 15 -35z m320 0 c0 -19 -4 -35 -10 -35 -5 0 -10 16 -10 35 0 19 5 35 10
35 6 0 10 -16 10 -35z m330 0 c0 -24 -5 -35 -15 -35 -10 0 -15 11 -15 35 0 24
5 35 15 35 10 0 15 -11 15 -35z m320 0 c0 -19 -4 -35 -10 -35 -5 0 -10 16 -10
35 0 19 5 35 10 35 6 0 10 -16 10 -35z m330 0 c0 -24 -5 -35 -15 -35 -10 0
-15 11 -15 35 0 24 5 35 15 35 10 0 15 -11 15 -35z"/>
<path d="M1330 485 c-10 -12 -10 -15 4 -15 9 0 16 7 16 15 0 8 -2 15 -4 15 -2
0 -9 -7 -16 -15z"/>
<path d="M1984 466 c-7 -19 3 -36 22 -36 10 0 14 8 12 22 -4 26 -26 36 -34 14z"/>
</g>
</svg>
